HIERARCHY
ROOT Hips
{
	OFFSET 0.000000 0.000000 0.000000
	CHANNELS 6 Xposition Yposition Zposition Zrotation Yrotation Xrotation 
	JOINT LHipJoint
	{
		OFFSET 0.000000 0.000000 0.000000
		CHANNELS 3 Zrotation Yrotation Xrotation
		JOINT LeftUpLeg
		{
			OFFSET 1.363060 -1.794630 0.839290
			CHANNELS 3 Zrotation Yrotation Xrotation
			JOINT LeftLeg
			{
				OFFSET 2.448110 -6.726130 0.000000
				CHANNELS 3 Zrotation Yrotation Xrotation
				JOINT LeftFoot
				{
					OFFSET 2.562200 -7.039590 0.000000
					CHANNELS 3 Zrotation Yrotation Xrotation
					JOINT LeftToeBase
					{
						OFFSET 0.157640 -0.433110 2.322550
						CHANNELS 3 Zrotation Yrotation Xrotation
						End Site
						{
							OFFSET 0.000000 0.000000 0.000000
						}
					}
				}
			}
		}
	}
	JOINT RHipJoint
	{
		OFFSET 0.000000 0.000000 0.000000
		CHANNELS 3 Zrotation Yrotation Xrotation
		JOINT RightUpLeg
		{
			OFFSET -1.305520 -1.794630 0.839290
			CHANNELS 3 Zrotation Yrotation Xrotation
			JOINT RightLeg
			{
				OFFSET -2.542530 -6.985550 0.000000
				CHANNELS 3 Zrotation Yrotation Xrotation
				JOINT RightFoot
				{
					OFFSET -2.568260 -7.056230 0.000000
					CHANNELS 3 Zrotation Yrotation Xrotation
					JOINT RightToeBase
					{
						OFFSET -0.164730 -0.452590 2.363150
						CHANNELS 3 Zrotation Yrotation Xrotation
						End Site
						{
							OFFSET 0.000000 0.000000 0.000000
						}
					}
				}
			}
		}
	}
	JOINT LowerBack
	{
		OFFSET 0.000000 0.000000 0.000000
		CHANNELS 3 Zrotation Yrotation Xrotation
		JOINT Spine
		{
			OFFSET 0.028270 2.035590 -0.193380
			CHANNELS 3 Zrotation Yrotation Xrotation
			JOINT Spine1
			{
				OFFSET 0.056720 2.048850 -0.042750
				CHANNELS 3 Zrotation Yrotation Xrotation
				JOINT Neck
				{
					OFFSET 0.000000 0.000000 0.000000
					CHANNELS 3 Zrotation Yrotation Xrotation
					JOINT Neck1
					{
						OFFSET -0.054170 1.746240 0.172020
						CHANNELS 3 Zrotation Yrotation Xrotation
						JOINT Head
						{
							OFFSET 0.104070 1.761360 -0.123970
							CHANNELS 3 Zrotation Yrotation Xrotation
							End Site
							{
								OFFSET 0.000000 0.000000 0.000000
							}
						}
					}
				}
				JOINT LeftShoulder
				{
					OFFSET 0.000000 0.000000 0.000000
					CHANNELS 3 Zrotation Yrotation Xrotation
					JOINT LeftArm
					{
						OFFSET 3.362410 1.200890 -0.311210
						CHANNELS 3 Zrotation Yrotation Xrotation
						JOINT LeftForeArm
						{
							OFFSET 4.983000 -0.000000 -0.000000
							CHANNELS 3 Zrotation Yrotation Xrotation
							JOINT LeftHand
							{
								OFFSET 3.483560 -0.000000 -0.000000
								CHANNELS 3 Zrotation Yrotation Xrotation
								JOINT LeftFingerBase
								{
									OFFSET 0.000000 0.000000 0.000000
									CHANNELS 3 Zrotation Yrotation Xrotation
									JOINT LeftHandIndex1
									{
										OFFSET 0.715260 -0.000000 -0.000000
										CHANNELS 3 Zrotation Yrotation Xrotation
										End Site
										{
											OFFSET 0.000000 0.000000 0.000000
										}
									}
								}
								JOINT LThumb
								{
									OFFSET 0.000000 0.000000 0.000000
									CHANNELS 3 Zrotation Yrotation Xrotation
									End Site
									{
										OFFSET 0.000000 0.000000 0.000000
									}
								}
							}
						}
					}
				}
				JOINT RightShoulder
				{
					OFFSET 0.000000 0.000000 0.000000
					CHANNELS 3 Zrotation Yrotation Xrotation
					JOINT RightArm
					{
						OFFSET -3.136600 1.374050 -0.404650
						CHANNELS 3 Zrotation Yrotation Xrotation
						JOINT RightForeArm
						{
							OFFSET -5.241900 -0.000000 -0.000000
							CHANNELS 3 Zrotation Yrotation Xrotation
							JOINT RightHand
							{
								OFFSET -3.444170 -0.000000 -0.000000
								CHANNELS 3 Zrotation Yrotation Xrotation
								JOINT RightFingerBase
								{
									OFFSET 0.000000 0.000000 0.000000
									CHANNELS 3 Zrotation Yrotation Xrotation
									JOINT RightHandIndex1
									{
										OFFSET -0.622530 -0.000000 -0.000000
										CHANNELS 3 Zrotation Yrotation Xrotation
										End Site
										{
											OFFSET 0.000000 0.000000 0.000000
										}
									}
								}
								JOINT RThumb
								{
									OFFSET 0.000000 0.000000 0.000000
									CHANNELS 3 Zrotation Yrotation Xrotation
									End Site
									{
										OFFSET 0.000000 0.000000 0.000000
									}
								}
							}
						}
					}
				}
			}
		}
	}
}
MOTION
Frames: 9
Frame Time: 0.008333
-0.098709 18.007713 16.860735 -6.662592 -4.982282 0.804823 -0.069873 4.397176 2.830671 -8.972585 -7.617314 -29.950693 3.072689 12.138948 36.998095 -1.472101 6.950415 5.108651 0.014600 0.780800 2.145900 2.004343 -5.084836 5.141039 28.597988 11.990430 -3.899042 -0.943129 -5.775960 23.951753 0.320376 -2.096108 0.049696 -0.102700 -2.066900 5.690600 5.446194 1.027816 6.940878 5.448460 2.194125 3.519864 -1.282122 0.866816 -9.346099 -5.195406 -4.672082 -17.140164 4.300060 -5.383119 19.439955 0.031200 -2.078600 9.591800 -7.209304 3.011287 -1.268577 -82.401614 5.197433 19.074082 11.920402 -20.304762 -2.188685 -0.435861 -0.673087 -3.983193 27.995637 17.257321 9.466800 -7.125000 0.000000 0.000000 0.447800 50.156700 0.056900 11.077116 -1.658717 -2.204029 72.404426 6.733554 18.944369 -12.406065 24.884296 -3.254155 1.008060 -0.122626 -0.969039 -18.779942 18.858770 -6.642700 7.125000 0.000000 0.000000 5.461300 -10.068300 4.443200
-0.096339 18.006555 16.948160 -6.616226 -5.062402 0.896590 -0.146558 4.373571 2.802366 -8.743598 -7.843851 -29.845809 2.692769 11.724630 35.503859 -1.573633 7.305487 4.918054 0.009905 0.626984 1.723003 2.034189 -5.102518 5.179834 28.518774 12.058285 -3.520703 -0.897847 -5.696895 23.707282 0.376662 -2.281242 -0.106146 -0.101761 -2.057456 5.664476 5.320730 1.057803 6.861181 5.451467 2.205606 3.588091 -1.200924 0.889125 -9.262498 -5.237416 -4.638317 -17.287561 4.353931 -5.317550 19.463945 0.062736 -2.043971 9.625987 -7.214275 3.017538 -1.265236 -82.484047 5.084377 18.635642 11.700492 -19.944535 -2.114842 -0.448640 -0.618522 -3.849541 27.898286 14.734576 8.124432 -7.125000 0.000000 0.000000 0.698103 47.277719 0.024811 11.071673 -1.642825 -2.194770 72.303024 7.095957 19.293803 -12.524806 25.045441 -3.308682 1.004690 -0.097774 -1.147794 -18.923411 18.413104 -6.534283 7.125000 0.000000 0.000000 5.341285 -10.536210 4.294576
-0.093634 18.006233 17.036066 -6.557195 -5.139330 0.994858 -0.226711 4.350426 2.775354 -8.527320 -8.068275 -29.727717 2.311830 11.299812 33.993534 -1.668407 7.635537 4.750274 0.006497 0.517049 1.420733 2.064477 -5.119546 5.218076 28.420466 12.113403 -3.164653 -0.853480 -5.621083 23.470574 0.428061 -2.451110 -0.250240 -0.102004 -2.059706 5.670685 5.186788 1.087152 6.766410 5.446187 2.214482 3.654778 -1.117850 0.910562 -9.171738 -5.258596 -4.606455 -17.440128 4.380751 -5.255323 19.487833 0.082223 -2.012500 9.660321 -7.219550 3.023126 -1.262776 -82.554714 4.999690 18.278003 11.492655 -19.603524 -2.045156 -0.460109 -0.568001 -3.879931 27.813451 12.329079 6.843591 -7.125000 0.000000 0.000000 0.926962 44.530778 -0.012957 11.066631 -1.627934 -2.184991 72.206612 7.468538 19.614845 -12.627387 25.182875 -3.355098 1.002120 -0.077269 -1.298384 -19.061575 18.045059 -6.451567 7.125000 0.000000 0.000000 5.229105 -10.920176 4.161652
-0.089500 18.009486 17.126028 -6.443958 -5.202597 1.120955 -0.321706 4.329256 2.753883 -8.365435 -8.283657 -29.553095 1.926525 10.830053 32.414351 -1.734257 7.858494 4.680153 0.008596 0.594923 1.634750 2.096651 -5.133773 5.253951 28.240437 12.114013 -2.903999 -0.813026 -5.559195 23.267090 0.458547 -2.555646 -0.344058 -0.107306 -2.112009 5.815277 5.016559 1.113770 6.607117 5.405439 2.212211 3.714869 -1.026748 0.928272 -9.050340 -5.190624 -4.582742 -17.614828 4.291787 -5.207403 19.511282 0.050134 -1.994551 9.695282 -7.226126 3.025880 -1.264084 -82.575019 5.036419 18.266196 11.336496 -19.344755 -1.993264 -0.465975 -0.534792 -4.612424 27.782184 10.425410 5.826086 -7.125000 0.000000 0.000000 1.064044 42.348967 -0.075036 11.063302 -1.617326 -2.172981 72.131554 7.884680 19.814364 -12.660803 25.218823 -3.366797 1.002972 -0.075372 -1.328432 -19.177033 18.009226 -6.478851 7.125000 0.000000 0.000000 5.150457 -10.944864 4.095928
-0.084113 18.008729 17.217242 -6.383303 -5.275425 1.261339 -0.415884 4.307269 2.729930 -8.155073 -8.480121 -29.381871 1.542805 10.343837 30.789289 -1.815263 8.139903 4.695955 0.007892 0.487024 1.338286 2.127130 -5.143012 5.286862 28.110492 12.083492 -2.666627 -0.775505 -5.498798 23.076838 0.466395 -2.591486 -0.448261 -0.114596 -2.181592 6.007778 4.935152 1.152839 6.450375 5.353255 2.238893 3.746126 -0.997522 0.953647 -8.941382 -5.118161 -4.584700 -17.739426 4.226530 -5.205982 19.530808 0.018401 -1.994990 9.720828 -7.231693 3.027535 -1.267360 -82.542120 5.069775 18.134702 11.238075 -19.195475 -1.956328 -0.464670 -0.545076 -4.642463 27.720196 10.896968 6.040946 -7.125000 0.000000 0.000000 0.914849 42.868726 -0.089102 11.061769 -1.607695 -2.161538 72.080537 8.247192 19.939589 -12.681038 25.234862 -3.369667 1.008371 -0.080860 -1.344556 -19.366296 18.145917 -6.596553 7.125000 0.000000 0.000000 5.032186 -10.772480 4.017799
-0.076671 18.001397 17.310511 -6.408881 -5.363935 1.425154 -0.508721 4.283942 2.701910 -7.865210 -8.645560 -29.216218 1.161684 9.830630 29.088987 -1.921124 8.517176 4.852670 0.002590 0.074455 0.204632 2.154828 -5.144069 5.314915 28.062688 12.001916 -2.467441 -0.742796 -5.440844 22.908288 0.437118 -2.514666 -0.569499 -0.125145 -2.279515 6.278847 4.999411 1.212326 6.297813 5.282314 2.313058 3.730092 -1.069773 0.991596 -8.852825 -5.038331 -4.628755 -17.781857 4.200153 -5.280817 19.543901 -0.012749 -2.025587 9.730936 -7.235607 3.027388 -1.273863 -82.421967 5.097599 17.806922 11.234344 -19.225757 -1.943920 -0.451605 -0.626691 -3.520480 27.607826 15.263902 8.276882 -7.125000 0.000000 0.000000 0.296161 47.819057 -0.024428 11.063180 -1.599667 -2.151022 72.068943 8.521748 19.942969 -12.679655 25.218251 -3.358055 1.021227 -0.098461 -1.337846 -19.676599 18.565544 -6.862541 7.125000 0.000000 0.000000 4.848932 -10.276900 3.919323
-0.067977 17.993032 17.402903 -6.439511 -5.428860 1.597788 -0.602906 4.257388 2.663530 -7.540517 -8.913678 -29.058262 0.795747 9.298427 27.361033 -2.046554 8.967267 5.123771 0.006200 -0.351263 -0.965329 2.183080 -5.143669 5.343584 28.011518 11.894885 -2.294406 -0.711599 -5.385538 22.748291 0.401090 -2.421855 -0.717093 -0.133811 -2.357449 6.494624 5.075764 1.244694 6.185713 5.217883 2.357904 3.660645 -1.143950 1.011310 -8.822375 -5.024063 -4.648531 -17.722234 4.250645 -5.327482 19.545310 -0.005363 -2.040055 9.721524 -7.234361 3.029467 -1.275413 -82.342753 5.225744 17.560483 11.122377 -19.062758 -1.903227 -0.452914 -0.639799 -3.224459 27.663529 16.014843 8.696783 -7.125000 0.000000 0.000000 0.298215 48.688415 0.008678 11.066253 -1.595068 -2.143713 72.066314 8.708990 20.031818 -12.701968 25.238631 -3.359263 1.031436 -0.108543 -1.353291 -19.959072 18.838671 -7.066804 7.125000 0.000000 0.000000 4.676850 -9.944124 3.811528
-0.058331 17.983881 17.494628 -6.473982 -5.475862 1.777125 -0.698116 4.228383 2.617276 -7.189352 -9.259832 -28.906155 0.441350 8.751786 25.612063 -2.186855 9.472701 5.481803 0.016583 -0.786973 -2.162884 2.211751 -5.142162 5.372720 27.957790 11.768508 -2.141248 -0.681551 -5.332242 22.594793 0.359933 -2.316890 -0.884718 -0.141046 -2.420190 6.668378 5.161308 1.256453 6.104363 5.158398 2.380468 3.550604 -1.219590 1.017165 -8.836087 -5.059623 -4.649854 -17.585050 4.359557 -5.352738 19.537840 0.031310 -2.042264 9.697278 -7.229194 3.033238 -1.273199 -82.294655 5.430133 17.375863 10.928151 -18.752865 -1.841038 -0.465149 -0.600843 -3.556171 27.846966 14.017631 7.736497 -7.125000 0.000000 0.000000 0.772035 46.456235 0.017791 11.070589 -1.593076 -2.138842 72.070498 8.829873 20.185622 -12.742289 25.287125 -3.370213 1.039633 -0.112910 -1.385574 -20.220394 19.000457 -7.224154 7.125000 0.000000 0.000000 4.513259 -9.735078 3.696649
-0.050354 17.974355 17.583638 -6.545130 -5.513889 1.923561 -0.789002 4.205592 2.572745 -6.750421 -9.668986 -28.694589 0.110565 8.184982 23.857433 -2.300092 9.884788 5.821111 0.028598 -1.071136 -2.944664 2.239968 -5.144252 5.401134 27.973763 11.683382 -1.940641 -0.655842 -5.281466 22.451391 0.347794 -2.299003 -1.056500 -0.142591 -2.433433 6.705103 5.242596 1.273165 6.114016 5.137808 2.415859 3.425187 -1.273925 1.026899 -8.916229 -5.084332 -4.643019 -17.486117 4.420875 -5.357363 19.559708 0.054217 -2.038532 9.688011 -7.224096 3.037634 -1.271864 -82.259364 5.659909 17.208913 10.886568 -18.692549 -1.828673 -0.473494 -0.587846 -3.461469 28.052920 13.407781 7.488010 -7.125000 0.000000 0.000000 1.056231 45.794891 0.020000 11.071262 -1.591292 -2.138683 72.002940 8.856418 20.427746 -12.834301 25.419066 -3.410709 1.040216 -0.114728 -1.584981 -20.218636 19.166932 -7.284769 7.125000 0.000000 0.000000 4.526738 -9.555948 3.724574
